<?xml version="1.0" encoding="UTF-8"?>
<svg xmlns="http://www.w3.org/2000/svg" width="28" height="28" viewBox="0 0 28 28" fill="none">
  <path d="M14 1.5c-6.9 0-12.5 5.2-12.5 11.7 0 2.3.7 4.5 2 6.3L2 26.5l7.4-1.9c1.5.8 3.3 1.2 5.1 1.2 6.9 0 12.5-5.2 12.5-11.7S20.9 1.5 14 1.5z" fill="#1FA344"/>
  <path d="M19.8 17.7c-.1.4-.5.8-1.1 1.1-1.1.6-2.3.7-3.6.2-1.9-.8-3.5-2.1-4.8-3.6-1.2-1.4-2-2.9-2.3-4.4-.2-1.1.2-2.1 1-2.9.4-.4.7-.5 1.1-.5.3 0 .6.2.8.7l1 2.2c.1.3.1.6 0 .9-.1.2-.3.4-.5.7-.2.2-.3.5-.2.7.5.9 1.2 1.7 2 2.3.9.7 1.6.9 2 .7.2-.1.5-.2.7-.4.2-.2.5-.2.8-.1l2.2 1c.5.2.7.5.6.8z" fill="#FFFFFF"/>
</svg>
